# xmcd CD database file
#
# Track frame offsets:
#	150
#	22244
#	40385
#	61872
#	78210
#	100025
#	117480
#	140294
#
# Disc length: 2206 seconds
#
# Revision: 3
# Processed by: cddbd v1.5.2PL0 Copyright (c) Steve Scherf et al.
# Submitted via: CDex 1.70beta3
#
DISCID=64089c08
DTITLE=國府田マリ子 - 僕の宝物
DYEAR=2009
DGENRE=JPop
TTITLE0=キミ、想フ。
TTITLE1=ぶーちゃんぶぶぶ
TTITLE2=ワガママ。
TTITLE3=花色DIARY
TTITLE4=ブリキのおもちゃ
TTITLE5=キミノツバサ
TTITLE6=さよならが言えない
TTITLE7=僕の宝物
EXTD=YEAR: 2009
EXTT0=
EXTT1=
EXTT2=
EXTT3=
EXTT4=
EXTT5=
EXTT6=
EXTT7=
PLAYORDER=
